<?xml version="1.0" encoding="UTF-8"?>
<!DOCTYPE svg PUBLIC "-//W3C//DTD SVG 1.1//EN" "http://www.w3.org/Graphics/SVG/1.1/DTD/svg11.dtd">
<svg xmlns="http://www.w3.org/2000/svg" version="1.1" width="1024px" height="1024px" style="shape-rendering:geometricPrecision; text-rendering:geometricPrecision; image-rendering:optimizeQuality; fill-rule:evenodd; clip-rule:evenodd" xmlns:xlink="http://www.w3.org/1999/xlink">
<g><path style="opacity:1" fill="#3aa2e5" d="M 231.5,679.5 C 231.672,678.508 231.338,677.842 230.5,677.5C 224.1,663.444 220.767,647.778 220.5,630.5C 222.084,618.764 221.75,607.097 219.5,595.5C 186.756,489.676 205.256,392.676 275,304.5C 324.628,245.414 387.462,207.914 463.5,192C 584.536,175.885 683.703,214.719 761,308.5C 816.64,383.5 835.14,467 816.5,559C 812.056,584.238 804.556,608.738 794,632.5C 763.77,698.91 717.937,751.41 656.5,790C 597.045,823.264 533.878,836.097 467,828.5C 384.887,814.354 313.554,775.354 253,711.5C 244.795,701.474 237.628,690.808 231.5,679.5 Z"/></g>
<g><path style="opacity:1" fill="#16193a" d="M 500.5,200.5 C 592.381,199.053 670.214,231.053 734,296.5C 805.146,381.126 826.146,477.126 797,584.5C 771.412,667.584 721.912,732.084 648.5,778C 570.504,819.929 489.504,826.596 405.5,798C 350.702,777.856 303.536,746.356 264,703.5C 250.48,688.463 241.147,671.13 236,651.5C 234.334,638.396 234.168,625.563 235.5,613C 234.836,608.856 234.336,604.689 234,600.5C 201.053,496.835 217.72,402.168 284,316.5C 339.933,248.109 412.1,209.442 500.5,200.5 Z"/></g>
<g><path style="opacity:1" fill="#3aa4e8" d="M 490.5,250.5 C 533.422,248.431 574.422,256.264 613.5,274C 631.397,284.115 649.73,293.449 668.5,302C 713.058,328.221 746.891,364.388 770,410.5C 775.843,421.873 778.843,433.873 779,446.5C 776.281,447.444 773.448,447.777 770.5,447.5C 780.763,484.469 780.596,521.469 770,558.5C 750.99,626.739 711.157,678.905 650.5,715C 595.346,746.123 536.013,761.623 472.5,761.5C 439.683,761.019 407.35,756.852 375.5,749C 330.11,736.59 294.61,710.757 269,671.5C 263.311,661.457 259.311,650.79 257,639.5C 255.549,634.644 257.049,631.31 261.5,629.5C 263.697,629.848 265.53,630.848 267,632.5C 275.161,659.651 289.994,682.485 311.5,701C 336.051,721.275 364.051,733.942 395.5,739C 393.65,735.253 394.817,733.086 399,732.5C 460.135,748.862 520.302,745.695 579.5,723C 592.441,716.368 605.108,709.368 617.5,702C 622.579,698.463 627.246,694.463 631.5,690C 630.5,689.333 629.5,689.333 628.5,690C 594.681,711.381 557.681,723.381 517.5,726C 458.38,730.467 403.38,717.8 352.5,688C 293.759,647.058 259.592,590.891 250,519.5C 247.133,484.371 252.799,450.704 267,418.5C 299.972,350.195 350.805,300.028 419.5,268C 442.491,258.835 466.158,253.002 490.5,250.5 Z"/></g>
<g><path style="opacity:1" fill="#16193a" d="M 492.5,280.5 C 565.816,279.918 626.65,306.918 675,361.5C 724.869,426.313 733.536,496.313 701,571.5C 676.937,623.899 639.437,663.732 588.5,691C 529.035,716.513 469.368,716.846 409.5,692C 346.062,662.559 308.229,613.393 296,544.5C 290.072,463.192 320.905,400.026 388.5,355C 431.849,328.046 478.182,321.046 527.5,334C 581.4,352.9 617.567,389.4 636,443.5C 645.908,476.117 644.241,508.117 631,539.5C 627.618,547.104 623.118,553.938 617.5,560C 616.207,560.49 614.873,560.657 613.5,560.5C 618.275,549.02 622.775,537.354 627,525.5C 640.586,473.674 628.086,429.508 589.5,393C 559.681,369.042 525.681,359.708 487.5,365C 419.834,377.738 375.668,416.905 355,482.5C 342.196,541.084 358.03,590.251 402.5,630C 446.885,665.067 496.218,674.067 550.5,657C 579.891,646.232 604.391,628.732 624,604.5C 662.72,553.929 674.387,497.596 659,435.5C 628.866,355.056 570.866,311.389 485,304.5C 420.33,304.933 366.997,329.6 325,378.5C 277.473,434.468 264.639,497.634 286.5,568C 285.891,570.803 284.225,571.803 281.5,571C 274.279,561.347 269.779,550.514 268,538.5C 260.346,493.1 268.013,450.433 291,410.5C 308.914,382.579 331.081,358.413 357.5,338C 378.245,321.75 400.578,308.084 424.5,297C 446.471,288.006 469.138,282.506 492.5,280.5 Z"/></g>
<g><path style="opacity:1" fill="#16193a" d="M 668.5,317.5 C 668.56,316.957 668.893,316.624 669.5,316.5C 700.855,337.688 727.022,364.022 748,395.5C 756.243,409.484 762.409,424.317 766.5,440C 766.251,443.592 764.418,446.092 761,447.5C 758.281,443.28 754.781,439.946 750.5,437.5C 748.971,437.529 747.804,438.196 747,439.5C 746.833,441.5 746.667,443.5 746.5,445.5C 750.151,462.953 754.317,480.286 759,497.5C 763.081,551.585 748.414,599.918 715,642.5C 696.178,665.989 673.678,685.156 647.5,700C 639.135,704.515 630.802,709.015 622.5,713.5C 621.707,712.645 622.04,711.811 623.5,711C 699.236,653.035 739.236,576.202 743.5,480.5C 741.367,415.348 716.367,361.015 668.5,317.5 Z"/></g>
<g><path style="opacity:1" fill="#16193b" d="M 518.5,382.5 C 576.96,385.46 611.127,415.793 621,473.5C 623.75,521.159 606.916,560.326 570.5,591C 527.418,621.026 484.751,620.693 442.5,590C 416.035,564.265 406.202,533.098 413,496.5C 419.635,466.383 435.801,442.883 461.5,426C 488.811,410.168 516.478,409.501 544.5,424C 578.33,449.149 590.164,482.315 580,523.5C 568.228,555.946 545.728,576.446 512.5,585C 470.654,587.327 448.32,567.494 445.5,525.5C 446.656,499.519 457.323,478.352 477.5,462C 486.328,455.752 495.328,449.752 504.5,444C 509,438.668 508,434.668 501.5,432C 485.317,430.295 470.983,434.628 458.5,445C 423.315,477.235 414.481,515.735 432,560.5C 447.517,586.799 470.684,600.465 501.5,601.5C 547.776,597.395 580.276,574.062 599,531.5C 614.775,490.289 607.609,453.789 577.5,422C 544.691,395.528 509.024,390.861 470.5,408C 444.025,421.141 424.192,440.975 411,467.5C 395.212,500.481 394.545,533.814 409,567.5C 429.379,606.496 461.712,626.829 506,628.5C 522.019,628.496 537.519,625.663 552.5,620C 570.352,611.574 588.018,602.907 605.5,594C 610.333,592.834 612.167,594.667 611,599.5C 570.942,642.644 522.442,656.144 465.5,640C 423.947,625.116 396.78,596.616 384,554.5C 375.322,508.202 386.989,467.869 419,433.5C 432.123,419.872 446.623,408.038 462.5,398C 480.265,389.062 498.932,383.896 518.5,382.5 Z"/></g>
<g><path style="opacity:0.024" fill="#0b0a09" d="M 226.5,675.5 C 227.833,676.167 227.833,676.167 226.5,675.5 Z"/></g>
<g><path style="opacity:0.024" fill="#050b1b" d="M 230.5,677.5 C 229.833,678.167 229.833,678.167 230.5,677.5 Z"/></g>
<g><path style="opacity:0.114" fill="#030913" d="M 231.5,679.5 C 230.833,680.167 230.833,680.167 231.5,679.5 Z"/></g>
</svg>
